<svg width="60" height="60" viewBox="0 0 60 60" xmlns="http://www.w3.org/2000/svg">
  <!-- Fond transparent -->
  <rect width="100%" height="100%" fill="transparent" />
  
  <!-- Nuage de points 5x5 -->
  <!-- Ligne 1 -->
  <circle cx="5" cy="5" r="1" fill="#ABB2BF" />
  <circle cx="15" cy="5" r="1" fill="#ABB2BF" />
  <circle cx="25" cy="5" r="1" fill="#ABB2BF" />
  <circle cx="35" cy="5" r="1" fill="#ABB2BF" />
  <circle cx="45" cy="5" r="1" fill="#ABB2BF" />

  <!-- Ligne 2 -->
  <circle cx="5" cy="15" r="1" fill="#ABB2BF" />
  <circle cx="15" cy="15" r="1" fill="#ABB2BF" />
  <circle cx="25" cy="15" r="1" fill="#ABB2BF" />
  <circle cx="35" cy="15" r="1" fill="#ABB2BF" />
  <circle cx="45" cy="15" r="1" fill="#ABB2BF" />

  <!-- Ligne 3 -->
  <circle cx="5" cy="25" r="1" fill="#ABB2BF" />
  <circle cx="15" cy="25" r="1" fill="#ABB2BF" />
  <circle cx="25" cy="25" r="1" fill="#ABB2BF" />
  <circle cx="35" cy="25" r="1" fill="#ABB2BF" />
  <circle cx="45" cy="25" r="1" fill="#ABB2BF" />

  <!-- Ligne 4 -->
  <circle cx="5" cy="35" r="1" fill="#ABB2BF" />
  <circle cx="15" cy="35" r="1" fill="#ABB2BF" />
  <circle cx="25" cy="35" r="1" fill="#ABB2BF" />
  <circle cx="35" cy="35" r="1" fill="#ABB2BF" />
  <circle cx="45" cy="35" r="1" fill="#ABB2BF" />

  <!-- Ligne 5 -->
  <circle cx="5" cy="45" r="1" fill="#ABB2BF" />
  <circle cx="15" cy="45" r="1" fill="#ABB2BF" />
  <circle cx="25" cy="45" r="1" fill="#ABB2BF" />
  <circle cx="35" cy="45" r="1" fill="#ABB2BF" />
  <circle cx="45" cy="45" r="1" fill="#ABB2BF" />
</svg>
