<svg width="32" height="31" viewBox="0 0 32 31" fill="none" xmlns="http://www.w3.org/2000/svg">
<path d="M3.47566 7.37393C3.23235 7.37393 2.99901 7.47187 2.82696 7.64619C2.65491 7.82051 2.55826 8.05695 2.55826 8.30348V19.5428C2.55878 20.9706 3.11563 22.3404 4.10769 23.3544C5.09976 24.3683 6.4468 24.9444 7.85587 24.9573H9.14837C8.81478 24.9427 8.49955 24.7985 8.2681 24.5547C8.03665 24.3108 7.90676 23.986 7.90537 23.6477V8.30348C7.90537 8.05714 7.80887 7.82088 7.63706 7.64658C7.46525 7.47229 7.23219 7.37423 6.98907 7.37393H3.47566Z" fill="url(#paint0_linear_1027_27501)"/>
<path d="M2.55826 19.5417V24.1727C2.55783 24.987 2.71577 25.7934 3.02308 26.5458C3.33038 27.2982 3.78101 27.9818 4.34921 28.5576C4.91741 29.1335 5.59204 29.5902 6.33454 29.9017C7.07704 30.2132 7.87284 30.3734 8.67647 30.3731H21.0625C22.4027 30.2635 23.653 29.6463 24.5643 28.6445C25.4755 27.6427 25.9808 26.3298 25.9795 24.9674V23.6366C25.9769 23.9854 25.8383 24.3189 25.5939 24.5645C25.3494 24.81 25.0191 24.9477 24.6749 24.9474L9.15167 24.9563H7.91197C6.49382 24.9569 5.13347 24.3869 4.12996 23.3715C3.12645 22.3562 2.56192 20.9786 2.56046 19.5417H2.55826Z" fill="url(#paint1_linear_1027_27501)"/>
<path d="M9.17604 7.4427e-06H1.45072C0.999723 7.4427e-06 0.668622 0.375617 0.644422 0.831475C0.59227 2.05294 0.386748 3.2627 0.032821 4.43153C-0.104679 4.92082 0.203321 5.43464 0.704922 5.43464H24.6663C28.2655 5.47142 31.3235 8.41833 31.3235 12.141V6.20815C31.3235 4.96081 30.9528 3.74237 30.2596 2.71158C29.5664 1.68078 28.5829 0.885422 27.4372 0.429116L27.3899 0.411283L27.3712 0.403481C26.6763 0.135582 25.9389 -0.00116239 25.1954 7.4427e-06H9.17604Z" fill="url(#paint2_linear_1027_27501)"/>
<path d="M25.9697 6.74767H25.9774V23.6178V24.9486C25.9784 26.3109 25.473 27.6236 24.5618 28.6254C23.6506 29.6271 22.4005 30.2444 21.0603 30.3542C20.9184 30.3654 20.7765 30.372 20.6324 30.372H25.2041C26.0077 30.3728 26.8036 30.2129 27.5463 29.9016C28.2889 29.5904 28.9636 29.1338 29.5319 28.558C30.1002 27.9822 30.5508 27.2985 30.858 26.546C31.1652 25.7936 31.323 24.9871 31.3223 24.1728V12.1845C31.3226 10.3985 30.6239 8.68528 29.3795 7.42041C28.1351 6.15553 26.4464 5.44225 24.6838 5.43694C25.0253 5.43929 25.3521 5.57842 25.5928 5.82398C25.8335 6.06953 25.9686 6.40158 25.9686 6.74767" fill="url(#paint3_linear_1027_27501)"/>
<defs>
<linearGradient id="paint0_linear_1027_27501" x1="5.85387" y1="7.37393" x2="5.85387" y2="24.9573" gradientUnits="userSpaceOnUse">
<stop offset="0.03" stop-color="#05612D"/>
<stop offset="0.3" stop-color="#017E36"/>
<stop offset="0.33" stop-color="#138838"/>
<stop offset="0.4" stop-color="#2E963C"/>
<stop offset="0.48" stop-color="#41A13F"/>
<stop offset="0.55" stop-color="#4CA740"/>
<stop offset="0.63" stop-color="#50A941"/>
<stop offset="0.73" stop-color="#57AB3C"/>
<stop offset="0.88" stop-color="#6CAF30"/>
<stop offset="0.91" stop-color="#70B02D"/>
</linearGradient>
<linearGradient id="paint1_linear_1027_27501" x1="25.9795" y1="24.9574" x2="2.55826" y2="24.9574" gradientUnits="userSpaceOnUse">
<stop offset="0.03" stop-color="#1F9CD4"/>
<stop offset="0.3" stop-color="#1470B1"/>
<stop offset="0.36" stop-color="#1A5EA2"/>
<stop offset="0.44" stop-color="#214B92"/>
<stop offset="0.53" stop-color="#254088"/>
<stop offset="0.63" stop-color="#263C85"/>
<stop offset="0.69" stop-color="#25397E"/>
<stop offset="0.79" stop-color="#223169"/>
<stop offset="0.9" stop-color="#1E2448"/>
<stop offset="0.91" stop-color="#1E2345"/>
</linearGradient>
<linearGradient id="paint2_linear_1027_27501" x1="3.00833" y1="-3.52537" x2="31.1221" y2="12.4939" gradientUnits="userSpaceOnUse">
<stop stop-color="#EDE229"/>
<stop offset="0.44" stop-color="#F3A30F"/>
<stop offset="0.57" stop-color="#E96316"/>
<stop offset="0.68" stop-color="#E1321B"/>
<stop offset="0.73" stop-color="#DE1F1D"/>
<stop offset="0.84" stop-color="#DC1820"/>
<stop offset="1" stop-color="#DB1222"/>
</linearGradient>
<linearGradient id="paint3_linear_1027_27501" x1="25.9796" y1="30.3743" x2="25.9796" y2="5.43694" gradientUnits="userSpaceOnUse">
<stop stop-color="#293170"/>
<stop offset="0.06" stop-color="#313272"/>
<stop offset="0.14" stop-color="#473577"/>
<stop offset="0.25" stop-color="#6A3A7F"/>
<stop offset="0.29" stop-color="#793C82"/>
<stop offset="0.44" stop-color="#803483"/>
<stop offset="0.66" stop-color="#852E83"/>
<stop offset="0.97" stop-color="#59132A"/>
<stop offset="1" stop-color="#551022"/>
</linearGradient>
</defs>
</svg>
